<svg width="366" height="336" viewBox="0 0 366 336" fill="none" xmlns="http://www.w3.org/2000/svg">
<path fill-rule="evenodd" clip-rule="evenodd" d="M319.976 329.838C316.873 327.406 315.594 327.148 314.173 323.152C272.156 205.024 279.764 95.4044 314.687 21.2565C316.494 17.4187 318.158 13.5421 322.401 13.5421C326.645 13.5421 331.641 17.2978 330.116 21.2565C288.132 130.223 294.726 226.631 330.436 332.704C332.456 338.703 322.355 331.702 319.976 329.838Z" fill="#D2B266"/>
<path fill-rule="evenodd" clip-rule="evenodd" d="M335.877 9.1234L333.82 13.542C332.031 17.3873 330.94 20.324 328.593 23.8583C278.687 98.9847 233.236 141.375 176.322 168.434C162.356 175.075 140.221 184.083 136.338 184.75C136.105 184.789 135.867 184.807 135.639 184.87C132.121 185.841 128.823 186.668 125.305 187.27C117.904 188.542 109.712 189.506 102.515 187.509C101.065 187.107 99.3439 186.57 97.992 185.91C97.2844 185.565 95.6993 184.707 97.3184 184.241C209.705 152.542 253.93 105.705 317.435 13.542C319.843 10.0475 337.666 5.27962 335.877 9.1234Z" fill="#D2B266"/>
<path fill-rule="evenodd" clip-rule="evenodd" d="M332.119 304.173L333.35 309.872C334.06 313.155 341.717 295.536 342.844 292.368C376.133 198.781 370.513 111.368 342.844 52.6231C341.412 49.5828 336.425 36.7476 335.776 40.0437L333.939 49.3769C333.291 52.6722 332.028 57.9103 333.161 61.0749C365.752 152.108 358.798 207.604 330.808 291.743C329.773 294.854 331.407 300.877 332.119 304.173Z" fill="#D2B266"/>
<path fill-rule="evenodd" clip-rule="evenodd" d="M42.5433 266.453C45.4388 264.442 46.6327 264.229 47.9594 260.923C87.1738 163.224 80.0733 72.5605 47.4794 11.235C45.7926 8.06097 44.2396 4.8548 40.2794 4.8548C36.3188 4.8548 31.6564 7.96119 33.0794 11.235C72.2633 101.357 66.1094 181.094 32.7808 268.823C30.8956 273.785 40.3232 267.995 42.5433 266.453Z" fill="#D2B266"/>
<path fill-rule="evenodd" clip-rule="evenodd" d="M27.7022 1.20039L29.6219 4.85481C31.2924 8.03491 32.3106 10.464 34.5008 13.3871C70.9835 59.1912 79.5596 76.9886 153.636 121.565C160.686 125.807 162.195 126.27 169.558 128.033C173.135 128.89 185.701 126.206 182.368 124.133C181.313 123.477 166.963 115.108 165.927 114.463C114.752 82.597 84.0089 62.451 44.915 4.85481C42.8597 1.82666 26.0328 -1.97857 27.7022 1.20039Z" fill="#D2B266"/>
<path fill-rule="evenodd" clip-rule="evenodd" d="M31.4765 248.99L30.3271 253.973C29.6646 256.843 22.5182 241.438 21.4668 238.668C-9.60208 156.846 -4.35685 80.4215 21.4668 29.0608C22.8032 26.4026 27.4577 15.1808 28.0628 18.0627L29.7772 26.2231C30.3819 29.1039 31.6318 33.7081 30.5036 36.4505C-0.538034 111.927 6.57691 164.56 32.6995 238.122C33.6659 240.842 32.1409 246.108 31.4765 248.99Z" fill="#D2B266"/>
<path fill-rule="evenodd" clip-rule="evenodd" d="M319.976 329.838C316.873 327.406 315.594 327.148 314.173 323.152C272.156 205.024 279.764 95.4044 314.687 21.2565C316.494 17.4187 318.158 13.5421 322.401 13.5421C326.645 13.5421 331.641 17.2978 330.116 21.2565C288.132 130.223 294.726 226.631 330.436 332.704C332.456 338.703 322.355 331.702 319.976 329.838Z" fill="#D2B266"/>
</svg>
